HIERARCHY
ROOT Root
{
  OFFSET 0.0 0.0 0.0
  CHANNELS 6 Xposition Yposition Zposition Zrotation Yrotation Xrotation
  JOINT Hips
  {
    OFFSET 0.0 100.0 0.0
    CHANNELS 6 Xposition Yposition Zposition Zrotation Yrotation Xrotation
    JOINT Spine1
    {
      OFFSET 5.003913 -0.037094 -0.013727
      CHANNELS 3 Zrotation Yrotation Xrotation
      JOINT Spine2
      {
        OFFSET 7.125363 -1e-06 0.0
        CHANNELS 3 Zrotation Yrotation Xrotation
        JOINT Chest
        {
          OFFSET 7.594027 1e-06 0.0
          CHANNELS 3 Zrotation Yrotation Xrotation
          JOINT Neck1
          {
            OFFSET 26.313086 -0.460272 -0.181672
            CHANNELS 3 Zrotation Yrotation Xrotation
            JOINT Neck2
            {
              OFFSET 8.045911 0.0 0.0
              CHANNELS 3 Zrotation Yrotation Xrotation
              JOINT Head
              {
                OFFSET 6.432774 0.0 0.0
                CHANNELS 3 Zrotation Yrotation Xrotation
                JOINT HeadEnd
                {
                  OFFSET 16.169773 0.06451 0.00362
                  CHANNELS 3 Zrotation Yrotation Xrotation
                }
                JOINT Jaw
                {
                  OFFSET 0.108741 3.12938 0.002639
                  CHANNELS 3 Zrotation Yrotation Xrotation
                }
                JOINT LeftEye
                {
                  OFFSET 4.45173 8.166359 3.206392
                  CHANNELS 3 Zrotation Yrotation Xrotation
                }
                JOINT RightEye
                {
                  OFFSET 4.436895 8.135758 -3.222429
                  CHANNELS 3 Zrotation Yrotation Xrotation
                }
              }
            }
          }
          JOINT LeftShoulder
          {
            OFFSET 23.218927 5.195579 1.621656
            CHANNELS 3 Zrotation Yrotation Xrotation
            JOINT LeftArm
            {
              OFFSET 15.902118 2e-06 -2e-06
              CHANNELS 3 Zrotation Yrotation Xrotation
              JOINT LeftForeArm
              {
                OFFSET 28.739307 0.0 -1e-06
                CHANNELS 3 Zrotation Yrotation Xrotation
                JOINT LeftHand
                {
                  OFFSET 27.093981 -4e-06 0.0
                  CHANNELS 3 Zrotation Yrotation Xrotation
                  JOINT LeftHandThumb1
                  {
                    OFFSET 2.276781 3.380274 0.83384
                    CHANNELS 3 Zrotation Yrotation Xrotation
                    JOINT LeftHandThumb2
                    {
                      OFFSET 4.705309 -1e-06 -1e-06
                      CHANNELS 3 Zrotation Yrotation Xrotation
                      JOINT LeftHandThumb3
                      {
                        OFFSET 2.798515 0.0 3e-06
                        CHANNELS 3 Zrotation Yrotation Xrotation
                        JOINT LeftHandThumbEnd
                        {
                          OFFSET 3.180793 4e-06 -4e-06
                          CHANNELS 3 Zrotation Yrotation Xrotation
                        }
                      }
                    }
                  }
                  JOINT LeftHandIndex1
                  {
                    OFFSET 3.247786 2.352677 0.137192
                    CHANNELS 3 Zrotation Yrotation Xrotation
                    JOINT LeftHandIndex2
                    {
                      OFFSET 6.367095 1e-06 0.0
                      CHANNELS 3 Zrotation Yrotation Xrotation
                      JOINT LeftHandIndex3
                      {
                        OFFSET 3.662364 0.0 0.0
                        CHANNELS 3 Zrotation Yrotation Xrotation
                        JOINT LeftHandIndex4
                        {
                          OFFSET 2.329242 4e-06 -4e-06
                          CHANNELS 3 Zrotation Yrotation Xrotation
                          JOINT LeftHandIndexEnd
                          {
                            OFFSET 2.767823 1e-06 0.0
                            CHANNELS 3 Zrotation Yrotation Xrotation
                          }
                        }
                      }
                    }
                  }
                  JOINT LeftHandMiddle1
                  {
                    OFFSET 3.163612 0.945023 -0.406112
                    CHANNELS 3 Zrotation Yrotation Xrotation
                    JOINT LeftHandMiddle2
                    {
                      OFFSET 6.276789 3e-06 0.0
                      CHANNELS 3 Zrotation Yrotation Xrotation
                      JOINT LeftHandMiddle3
                      {
                        OFFSET 4.35652 -1e-06 4e-06
                        CHANNELS 3 Zrotation Yrotation Xrotation
                        JOINT LeftHandMiddle4
                        {
                          OFFSET 2.996877 0.0 8e-06
                          CHANNELS 3 Zrotation Yrotation Xrotation
                          JOINT LeftHandMiddleEnd
                          {
                            OFFSET 2.323256 3e-06 -4e-06
                            CHANNELS 3 Zrotation Yrotation Xrotation
                          }
                        }
                      }
                    }
                  }
                  JOINT LeftHandRing1
                  {
                    OFFSET 2.882606 -0.309162 0.107445
                    CHANNELS 3 Zrotation Yrotation Xrotation
                    JOINT LeftHandRing2
                    {
                      OFFSET 6.033198 0.0 4e-06
                      CHANNELS 3 Zrotation Yrotation Xrotation
                      JOINT LeftHandRing3
                      {
                        OFFSET 4.350578 3e-06 0.0
                        CHANNELS 3 Zrotation Yrotation Xrotation
                        JOINT LeftHandRing4
                        {
                          OFFSET 2.651321 2e-06 -7e-06
                          CHANNELS 3 Zrotation Yrotation Xrotation
                          JOINT LeftHandRingEnd
                          {
                            OFFSET 1.937663 1e-06 -4e-06
                            CHANNELS 3 Zrotation Yrotation Xrotation
                          }
                        }
                      }
                    }
                  }
                  JOINT LeftHandPinky1
                  {
                    OFFSET 2.865315 -1.525436 0.575687
                    CHANNELS 3 Zrotation Yrotation Xrotation
                    JOINT LeftHandPinky2
                    {
                      OFFSET 5.54936 1e-06 -8e-06
                      CHANNELS 3 Zrotation Yrotation Xrotation
                      JOINT LeftHandPinky3
                      {
                        OFFSET 3.070974 0.0 -4e-06
                        CHANNELS 3 Zrotation Yrotation Xrotation
                        JOINT LeftHandPinky4
                        {
                          OFFSET 1.549672 1e-06 0.0
                          CHANNELS 3 Zrotation Yrotation Xrotation
                          JOINT LeftHandPinkyEnd
                          {
                            OFFSET 1.952123 0.0 0.0
                            CHANNELS 3 Zrotation Yrotation Xrotation
                          }
                        }
                      }
                    }
                  }
                }
              }
            }
          }
          JOINT RightShoulder
          {
            OFFSET 23.161716 5.296122 -1.380114
            CHANNELS 3 Zrotation Yrotation Xrotation
            JOINT RightArm
            {
              OFFSET -16.027195 -2e-06 1.1e-05
              CHANNELS 3 Zrotation Yrotation Xrotation
              JOINT RightForeArm
              {
                OFFSET -28.736639 4e-06 2e-06
                CHANNELS 3 Zrotation Yrotation Xrotation
                JOINT RightHand
                {
                  OFFSET -27.133619 6e-06 0.0
                  CHANNELS 3 Zrotation Yrotation Xrotation
                  JOINT RightHandThumb1
                  {
                    OFFSET -2.274328 -3.351035 -0.83067
                    CHANNELS 3 Zrotation Yrotation Xrotation
                    JOINT RightHandThumb2
                    {
                      OFFSET -4.703594 -3e-06 2e-06
                      CHANNELS 3 Zrotation Yrotation Xrotation
                      JOINT RightHandThumb3
                      {
                        OFFSET -2.794935 -4e-06 -3e-06
                        CHANNELS 3 Zrotation Yrotation Xrotation
                        JOINT RightHandThumbEnd
                        {
                          OFFSET -3.183852 4e-06 1e-06
                          CHANNELS 3 Zrotation Yrotation Xrotation
                        }
                      }
                    }
                  }
                  JOINT RightHandIndex1
                  {
                    OFFSET -3.253496 -2.33755 -0.127667
                    CHANNELS 3 Zrotation Yrotation Xrotation
                    JOINT RightHandIndex2
                    {
                      OFFSET -6.344434 0.0 0.0
                      CHANNELS 3 Zrotation Yrotation Xrotation
                      JOINT RightHandIndex3
                      {
                        OFFSET -3.654871 0.0 -8e-06
                        CHANNELS 3 Zrotation Yrotation Xrotation
                        JOINT RightHandIndex4
                        {
                          OFFSET -2.327586 -1e-06 0.0
                          CHANNELS 3 Zrotation Yrotation Xrotation
                          JOINT RightHandIndexEnd
                          {
                            OFFSET -2.770001 3e-06 8e-06
                            CHANNELS 3 Zrotation Yrotation Xrotation
                          }
                        }
                      }
                    }
                  }
                  JOINT RightHandMiddle1
                  {
                    OFFSET -3.168223 -0.944764 0.411762
                    CHANNELS 3 Zrotation Yrotation Xrotation
                    JOINT RightHandMiddle2
                    {
                      OFFSET -6.266691 -1e-06 -4e-06
                      CHANNELS 3 Zrotation Yrotation Xrotation
                      JOINT RightHandMiddle3
                      {
                        OFFSET -4.348901 0.0 0.0
                        CHANNELS 3 Zrotation Yrotation Xrotation
                        JOINT RightHandMiddle4
                        {
                          OFFSET -3.00024 2e-06 -4e-06
                          CHANNELS 3 Zrotation Yrotation Xrotation
                          JOINT RightHandMiddleEnd
                          {
                            OFFSET -2.321477 -4e-06 -4e-06
                            CHANNELS 3 Zrotation Yrotation Xrotation
                          }
                        }
                      }
                    }
                  }
                  JOINT RightHandRing1
                  {
                    OFFSET -2.885654 0.293261 -0.119232
                    CHANNELS 3 Zrotation Yrotation Xrotation
                    JOINT RightHandRing2
                    {
                      OFFSET -6.032835 -1e-06 -4e-06
                      CHANNELS 3 Zrotation Yrotation Xrotation
                      JOINT RightHandRing3
                      {
                        OFFSET -4.33881 0.0 -4e-06
                        CHANNELS 3 Zrotation Yrotation Xrotation
                        JOINT RightHandRing4
                        {
                          OFFSET -2.654903 -4e-06 -4e-06
                          CHANNELS 3 Zrotation Yrotation Xrotation
                          JOINT RightHandRingEnd
                          {
                            OFFSET -1.935122 0.0 4e-06
                            CHANNELS 3 Zrotation Yrotation Xrotation
                          }
                        }
                      }
                    }
                  }
                  JOINT RightHandPinky1
                  {
                    OFFSET -2.866241 1.503904 -0.60527
                    CHANNELS 3 Zrotation Yrotation Xrotation
                    JOINT RightHandPinky2
                    {
                      OFFSET -5.553177 -2e-06 0.0
                      CHANNELS 3 Zrotation Yrotation Xrotation
                      JOINT RightHandPinky3
                      {
                        OFFSET -3.062664 -1e-06 -4e-06
                        CHANNELS 3 Zrotation Yrotation Xrotation
                        JOINT RightHandPinky4
                        {
                          OFFSET -1.546529 2e-06 4e-06
                          CHANNELS 3 Zrotation Yrotation Xrotation
                          JOINT RightHandPinkyEnd
                          {
                            OFFSET -1.952341 0.0 -4e-06
                            CHANNELS 3 Zrotation Yrotation Xrotation
                          }
                        }
                      }
                    }
                  }
                }
              }
            }
          }
        }
      }
    }
    JOINT LeftLeg
    {
      OFFSET -8.443107 2.567604 10.043214
      CHANNELS 3 Zrotation Yrotation Xrotation
      JOINT LeftShin
      {
        OFFSET 43.229198 1e-06 -1e-06
        CHANNELS 3 Zrotation Yrotation Xrotation
        JOINT LeftFoot
        {
          OFFSET 42.298611 1e-06 1e-06
          CHANNELS 3 Zrotation Yrotation Xrotation
          JOINT LeftToeBase
          {
            OFFSET 14.165858 1e-06 0.0
            CHANNELS 3 Zrotation Yrotation Xrotation
            JOINT LeftToeEnd
            {
              OFFSET 6.7141 -0.234461 0.0
              CHANNELS 3 Zrotation Yrotation Xrotation
            }
          }
        }
      }
    }
    JOINT RightLeg
    {
      OFFSET -8.303923 2.592729 -10.047278
      CHANNELS 3 Zrotation Yrotation Xrotation
      JOINT RightShin
      {
        OFFSET -43.369682 0.0 1e-06
        CHANNELS 3 Zrotation Yrotation Xrotation
        JOINT RightFoot
        {
          OFFSET -42.260784 4e-06 2e-06
          CHANNELS 3 Zrotation Yrotation Xrotation
          JOINT RightToeBase
          {
            OFFSET -14.222245 -2e-06 -1e-06
            CHANNELS 3 Zrotation Yrotation Xrotation
            JOINT RightToeEnd
            {
              OFFSET -6.660062 0.232574 -2e-06
              CHANNELS 3 Zrotation Yrotation Xrotation
            }
          }
        }
      }
    }
  }
}
MOTION
Frames: 4
Frame Time: 0.03333333333333333
0.0 0.0 0.0 0.0 -0.0 0.0 5.786685 96.652542 -0.553899 92.776817 5.42763 90.173508 9.705935 -0.530783 0.128123 -7.985808 -0.106416 1.974188 24.529106 -3.768166 0.082329 32.353107 -5.863722 2.767242 -2.784506 -0.414199 5.226411 -38.442352 2.719983 4.383532 6e-06 -0.0 0.0 -0.02251 0.044143 -0.050527 -0.227221 0.01313 -0.057476 -0.24297 0.065341 -0.030246 -117.909859 -65.291824 141.743378 25.930126 -40.598564 4.754944 40.382294 -1.573137 -0.24328 14.617499 -7.402163 -35.831417 17.636627 -26.322731 52.411198 -19.46666 -14.395597 29.410395 -2e-06 -8.774822 -2e-06 15.898153 -18.057892 5.898795 -0.609776 -1.795653 -3.889329 -4.80709 -11.046811 -2.93785 5e-06 -20.976015 -0.0 -5.01997 -25.033558 -4.031881 6e-06 2e-06 -0.0 -10.634534 -5.686971 -3.565588 10.573275 -17.922951 -3.113902 2e-06 -13.821208 1e-06 -0.501776 -31.181505 -4.027017 -11.883757 -59.963688 7.969477 -13.982713 -7.150198 -2.875043 13.772729 -8.401491 -3.218242 0.347733 -34.211555 0.771654 -0.963028 -17.73337 2.621019 -2e-06 -1e-06 0.0 -17.34642 -20.095217 -4.201784 21.757557 -1.638377 3.866428 0.0 -6.338824 0.0 -1.69759 -22.591742 -6.194006 0.0 -5e-06 -2e-06 107.648354 -83.026413 93.946709 15.54408 -39.909084 18.824234 57.539448 -1.198038 -0.325014 16.22983 -19.277781 -53.861969 22.182116 -20.375895 49.933323 -16.701815 -16.743528 28.476534 -1e-06 -12.690603 -1e-06 15.919117 -18.553644 2.676255 -0.105919 -1.513857 -4.275881 -5.039042 -5.612872 -2.953557 4e-06 -11.020525 -2e-06 -6.111298 -15.895336 -3.840471 -0.0 -1e-06 0.0 -10.283371 -5.680288 -4.341838 11.028296 -11.302406 -2.372633 -1.384269 -14.238582 -6.320121 -0.625439 -26.924198 -3.827601 -3.802809 -48.967552 -4.004948 -13.708525 -7.363478 -3.720939 18.14115 -14.052739 -3.242675 6e-06 -18.787273 -2e-06 -0.429711 -8.456047 2.555504 -0.0 0.0 -0.0 -15.923536 -20.09449 -5.473584 30.419214 -7.190824 1.735927 2e-06 -8.162925 -0.0 -1.861902 -22.861479 -6.167943 0.0 -3e-06 -0.0 168.675568 5.311951 -3.530694 32.711998 0.027193 -0.132185 -85.528046 -8.115586 -1.550201 -6.266812 1.399047 2.032771 -0.999999 -0.0 0.0 -9.606342 -13.058668 -11.849262 64.156708 0.05485 0.087707 -80.965698 -6.250657 -8.977048 -8.285865 0.719765 1.67005 -1.000003 0.0 -1e-06 
0.0 0.0 0.0 0.0 -0.0 0.0 5.932534 96.773811 1.536646 92.092079 5.737353 90.203819 10.01731 -0.329998 0.057965 -7.907886 -0.033921 1.691467 24.815573 -3.513754 -0.379308 32.583134 -5.554203 2.686696 -2.774717 -0.390727 5.357987 -37.990788 2.590114 4.588381 7e-06 0.0 -1e-06 -0.050526 0.04444 -0.050002 -0.241476 0.016317 -0.055242 -0.261704 0.063778 -0.0335 -118.195702 -65.93512 142.189896 26.813711 -39.791393 3.275632 39.975719 -1.558656 -0.311081 14.6207 -7.142938 -36.27486 17.636627 -26.322725 52.41119 -19.466665 -14.395597 29.410393 0.0 -8.774821 -2e-06 15.846828 -18.002838 5.93183 -0.609775 -1.795654 -3.889328 -4.807089 -11.04681 -2.937851 4e-06 -20.976019 -2e-06 -5.019971 -25.03356 -4.031882 6e-06 1e-06 -0.0 -10.634533 -5.686971 -3.565587 10.573275 -17.922951 -3.113903 0.0 -13.821206 1e-06 -0.501775 -31.181505 -4.02702 -11.86113 -59.914207 8.06317 -13.982713 -7.150199 -2.875042 13.77273 -8.401491 -3.218242 0.347735 -34.211552 0.77165 -0.963028 -17.73337 2.621018 -0.0 -0.0 1e-06 -17.346418 -20.095219 -4.20178 21.757557 -1.638375 3.866426 0.0 -6.338823 1e-06 -1.697588 -22.591747 -6.194009 -0.0 -4e-06 -1e-06 105.064156 -82.791893 96.597496 15.295599 -40.329018 19.777803 57.555069 -1.146976 -0.064331 17.014587 -19.832354 -54.451317 22.182112 -20.375885 49.933308 -16.701815 -16.743526 28.47653 -2e-06 -12.690599 -0.0 15.88219 -18.722502 2.706578 -0.105919 -1.513856 -4.275881 -5.03904 -5.61287 -2.953557 4e-06 -11.020523 -2e-06 -6.111297 -15.895329 -3.840471 1e-06 -2e-06 -0.0 -10.283369 -5.680288 -4.341838 11.028292 -11.302405 -2.372633 -1.384268 -14.238575 -6.320121 -0.625437 -26.924187 -3.827602 -3.747557 -48.895748 -4.107525 -13.708523 -7.363476 -3.720939 18.14115 -14.052739 -3.242675 6e-06 -18.78727 -3e-06 -0.429712 -8.456039 2.555503 -0.0 1e-06 -0.0 -15.923532 -20.094482 -5.473585 30.41921 -7.190825 1.735924 1e-06 -8.162924 0.0 -1.861901 -22.861465 -6.167942 0.0 -3e-06 -1e-06 170.555893 4.695648 -3.260953 32.589561 0.049916 -0.084174 -86.957329 -8.191857 -1.894684 -5.796162 1.418492 2.046661 -0.999999 -0.0 0.0 -12.660217 -12.051465 -10.918131 61.953075 0.167998 -0.082402 -81.328819 -7.917263 -8.18888 -8.013651 0.684521 1.639877 -1.000001 -0.0 0.0 
0.0 0.0 0.0 0.0 -0.0 0.0 6.039967 96.817505 3.64751 91.396515 5.929853 90.134644 10.263 -0.210947 -0.032157 -7.846537 -0.020512 1.357999 25.091145 -3.172091 -0.753964 32.863831 -5.225258 2.552999 -2.780927 -0.34445 5.540625 -37.320889 2.401152 4.815604 4e-06 -1e-06 -0.0 -0.060417 0.045816 -0.045703 -0.238216 0.017182 -0.044887 -0.259572 0.066255 -0.037054 -118.443306 -66.678307 142.396423 27.352032 -38.972145 2.442566 40.063396 -1.486148 -0.359624 14.44882 -6.935559 -36.798359 17.636627 -26.322733 52.411201 -19.466665 -14.3956 29.410395 -1e-06 -8.774821 -2e-06 15.797089 -18.048714 5.959705 -0.609776 -1.795654 -3.889329 -4.807088 -11.046809 -2.93785 4e-06 -20.976017 -0.0 -5.01997 -25.033558 -4.031881 7e-06 1e-06 -0.0 -10.634535 -5.68697 -3.565587 10.573275 -17.922953 -3.113902 3e-06 -13.821209 1e-06 -0.501777 -31.181507 -4.027017 -11.794038 -60.02285 8.009778 -13.982714 -7.150198 -2.875042 13.772731 -8.401493 -3.218242 0.347733 -34.211555 0.771655 -0.963027 -17.733368 2.62102 -1e-06 0.0 1e-06 -17.346416 -20.095217 -4.201782 21.757557 -1.638373 3.866427 -0.0 -6.338823 1e-06 -1.697589 -22.591745 -6.194008 -0.0 -3e-06 -2e-06 101.849953 -82.520477 99.782333 15.034794 -40.905346 20.022419 57.357517 -1.14811 0.243882 17.568262 -20.023592 -56.021 22.182114 -20.375891 49.933323 -16.701817 -16.743528 28.476532 -2e-06 -12.690603 -1e-06 15.776053 -18.828772 2.833389 -0.10592 -1.513856 -4.275881 -5.039041 -5.61287 -2.953557 4e-06 -11.020523 -3e-06 -6.111297 -15.895332 -3.840472 0.0 -1e-06 0.0 -10.283371 -5.680289 -4.341839 11.028294 -11.302404 -2.372634 -1.384269 -14.238581 -6.320123 -0.625436 -26.924187 -3.827604 -3.657477 -48.997643 -4.207085 -13.708526 -7.363477 -3.72094 18.141153 -14.052738 -3.242675 6e-06 -18.787273 -3e-06 -0.429711 -8.456044 2.555504 -0.0 -0.0 -0.0 -15.923539 -20.094486 -5.473587 30.419218 -7.190822 1.735927 2e-06 -8.162922 -0.0 -1.861902 -22.861469 -6.167944 1e-06 -4e-06 -1e-06 172.248428 4.080257 -2.891224 32.609207 0.064195 -0.043841 -88.455635 -8.289797 -2.196886 -5.349051 1.415453 2.064603 -0.999999 -0.0 -0.0 -15.594579 -10.857511 -10.119965 58.078335 0.188718 -0.200834 -80.958023 -9.162715 -7.746929 -8.040625 0.717703 1.637663 -1.000002 0.0 1e-06 
0.0 0.0 0.0 0.0 -0.0 0.0 6.058644 96.823524 5.696343 90.786171 5.965362 89.841072 10.44908 -0.196362 -0.125283 -7.817595 -0.041705 1.05525 25.28191 -2.88686 -1.066018 33.122219 -4.884142 2.484087 -2.773276 -0.343022 5.683271 -36.745483 2.231155 5.050759 4e-06 -1e-06 0.0 -0.065677 0.043851 -0.041293 -0.216228 0.010976 -0.032931 -0.238246 0.069198 -0.040793 -118.322479 -67.475433 142.05835 27.591145 -38.305511 1.923794 40.66954 -1.399347 -0.382231 14.276168 -6.583378 -37.698421 17.636631 -26.322729 52.411186 -19.466658 -14.395598 29.410389 -1e-06 -8.774821 -2e-06 15.773253 -18.013342 5.925687 -0.609777 -1.795653 -3.889327 -4.807087 -11.046813 -2.937851 3e-06 -20.976019 1e-06 -5.019972 -25.03356 -4.03188 6e-06 2e-06 0.0 -10.634535 -5.686972 -3.565588 10.573275 -17.922951 -3.113899 1e-06 -13.821211 2e-06 -0.501779 -31.181511 -4.027015 -11.72541 -60.107674 7.893936 -13.982715 -7.150199 -2.875042 13.772729 -8.401492 -3.21824 0.347731 -34.211555 0.771657 -0.96303 -17.73337 2.621021 -1e-06 0.0 1e-06 -17.34642 -20.095221 -4.201782 21.757561 -1.638376 3.866428 1e-06 -6.338824 1e-06 -1.697589 -22.591753 -6.194007 -0.0 -3e-06 -2e-06 98.68602 -82.251846 102.851143 14.826758 -41.5756 19.948315 57.004936 -1.042202 0.57133 17.647057 -20.203873 -57.618896 22.182121 -20.3759 49.933334 -16.701817 -16.743528 28.476532 -2e-06 -12.690603 -2e-06 15.713935 -18.903296 2.959112 -0.10592 -1.513857 -4.275883 -5.039042 -5.612872 -2.953557 4e-06 -11.020525 -2e-06 -6.111297 -15.895334 -3.840473 0.0 -1e-06 -0.0 -10.283372 -5.680288 -4.34184 11.028296 -11.302407 -2.372633 -1.384268 -14.238579 -6.320123 -0.625437 -26.924192 -3.827602 -3.634459 -49.279568 -4.207172 -13.708527 -7.363477 -3.720941 18.141153 -14.052738 -3.242674 6e-06 -18.787275 -2e-06 -0.429711 -8.456043 2.555504 0.0 -1e-06 0.0 -15.923536 -20.094486 -5.473588 30.419222 -7.190827 1.735928 3e-06 -8.162926 -0.0 -1.861903 -22.861473 -6.167942 1e-06 -2e-06 -1e-06 173.781769 3.588586 -2.363829 32.525814 0.063356 -0.027551 -89.841499 -8.573885 -2.49498 -5.055073 1.427696 2.078898 -0.999998 -0.0 -0.0 -18.239504 -9.683228 -9.651165 52.269905 0.131162 -0.229773 -79.714531 -9.688701 -7.650721 -8.08163 0.774925 1.632842 -1.000002 -1e-06 0.0 
